<mxfile host="app.diagrams.net" modified="2024-04-04T12:28:00.662Z" agent="Mozilla/5.0 (Windows NT 10.0; Win64; x64) AppleWebKit/537.36 (KHTML, like Gecko) Chrome/104.0.0.0 Safari/537.36" etag="KAxm8Bv4f98WX7BUnQzh" version="23.1.1" type="device">
  <diagram name="Page-1" id="4SSQID6_KFEqSqbC2IDF">
    <mxGraphModel dx="1050" dy="581" grid="1" gridSize="10" guides="1" tooltips="1" connect="1" arrows="1" fold="1" page="0" pageScale="1" pageWidth="827" pageHeight="1169" math="0" shadow="0">
      <root>
        <mxCell id="0" />
        <mxCell id="1" parent="0" />
        <mxCell id="4bZb9EZNsROhcdp3ug32-57" value="" style="edgeStyle=orthogonalEdgeStyle;rounded=0;orthogonalLoop=1;jettySize=auto;html=1;" edge="1" parent="1" source="4bZb9EZNsROhcdp3ug32-6" target="4bZb9EZNsROhcdp3ug32-10">
          <mxGeometry relative="1" as="geometry" />
        </mxCell>
        <mxCell id="4bZb9EZNsROhcdp3ug32-6" value="Start" style="ellipse;whiteSpace=wrap;html=1;" vertex="1" parent="1">
          <mxGeometry x="210" y="60" width="70" height="45" as="geometry" />
        </mxCell>
        <mxCell id="4bZb9EZNsROhcdp3ug32-54" value="" style="edgeStyle=orthogonalEdgeStyle;rounded=0;orthogonalLoop=1;jettySize=auto;html=1;" edge="1" parent="1" source="4bZb9EZNsROhcdp3ug32-7" target="4bZb9EZNsROhcdp3ug32-9">
          <mxGeometry relative="1" as="geometry" />
        </mxCell>
        <mxCell id="4bZb9EZNsROhcdp3ug32-69" value="Yes" style="edgeLabel;html=1;align=center;verticalAlign=middle;resizable=0;points=[];" vertex="1" connectable="0" parent="4bZb9EZNsROhcdp3ug32-54">
          <mxGeometry x="-0.152" relative="1" as="geometry">
            <mxPoint as="offset" />
          </mxGeometry>
        </mxCell>
        <mxCell id="4bZb9EZNsROhcdp3ug32-7" value="Ref BOM&lt;br&gt;&amp;nbsp;ID exists?" style="rhombus;whiteSpace=wrap;html=1;fillColor=#fff2cc;strokeColor=#d6b656;" vertex="1" parent="1">
          <mxGeometry x="480" y="150" width="120" height="80" as="geometry" />
        </mxCell>
        <mxCell id="4bZb9EZNsROhcdp3ug32-53" value="" style="edgeStyle=orthogonalEdgeStyle;rounded=0;orthogonalLoop=1;jettySize=auto;html=1;" edge="1" parent="1" source="4bZb9EZNsROhcdp3ug32-8" target="4bZb9EZNsROhcdp3ug32-7">
          <mxGeometry relative="1" as="geometry" />
        </mxCell>
        <mxCell id="4bZb9EZNsROhcdp3ug32-8" value="Enter Reference &lt;br&gt;BOM ID" style="rounded=1;whiteSpace=wrap;html=1;fontSize=12;glass=0;strokeWidth=1;shadow=0;fillColor=#fff2cc;strokeColor=#d6b656;" vertex="1" parent="1">
          <mxGeometry x="480" y="62.5" width="120" height="40" as="geometry" />
        </mxCell>
        <mxCell id="4bZb9EZNsROhcdp3ug32-55" style="edgeStyle=orthogonalEdgeStyle;rounded=0;orthogonalLoop=1;jettySize=auto;html=1;entryX=0;entryY=0.5;entryDx=0;entryDy=0;" edge="1" parent="1" source="4bZb9EZNsROhcdp3ug32-9" target="4bZb9EZNsROhcdp3ug32-11">
          <mxGeometry relative="1" as="geometry" />
        </mxCell>
        <mxCell id="4bZb9EZNsROhcdp3ug32-9" value="Enter New&lt;br&gt;BOM ID" style="rounded=1;whiteSpace=wrap;html=1;fontSize=12;glass=0;strokeWidth=1;shadow=0;fillColor=#fff2cc;strokeColor=#d6b656;" vertex="1" parent="1">
          <mxGeometry x="480" y="280" width="120" height="40" as="geometry" />
        </mxCell>
        <mxCell id="4bZb9EZNsROhcdp3ug32-56" value="" style="edgeStyle=orthogonalEdgeStyle;rounded=0;orthogonalLoop=1;jettySize=auto;html=1;" edge="1" parent="1" source="4bZb9EZNsROhcdp3ug32-10" target="4bZb9EZNsROhcdp3ug32-8">
          <mxGeometry relative="1" as="geometry" />
        </mxCell>
        <mxCell id="4bZb9EZNsROhcdp3ug32-10" value="Identify Reference &lt;br&gt;BOM ID" style="rounded=1;whiteSpace=wrap;html=1;fontSize=12;glass=0;strokeWidth=1;shadow=0;fillColor=#dae8fc;strokeColor=#6c8ebf;" vertex="1" parent="1">
          <mxGeometry x="320" y="62.5" width="120" height="40" as="geometry" />
        </mxCell>
        <mxCell id="4bZb9EZNsROhcdp3ug32-30" value="" style="edgeStyle=orthogonalEdgeStyle;rounded=0;orthogonalLoop=1;jettySize=auto;html=1;" edge="1" parent="1" source="4bZb9EZNsROhcdp3ug32-11" target="4bZb9EZNsROhcdp3ug32-12">
          <mxGeometry relative="1" as="geometry" />
        </mxCell>
        <mxCell id="4bZb9EZNsROhcdp3ug32-70" value="No" style="edgeLabel;html=1;align=center;verticalAlign=middle;resizable=0;points=[];" vertex="1" connectable="0" parent="4bZb9EZNsROhcdp3ug32-30">
          <mxGeometry x="-0.2547" y="-1" relative="1" as="geometry">
            <mxPoint x="1" y="1" as="offset" />
          </mxGeometry>
        </mxCell>
        <mxCell id="4bZb9EZNsROhcdp3ug32-11" value="New BOM &lt;br&gt;ID exists?" style="rhombus;whiteSpace=wrap;html=1;fillColor=#fff2cc;strokeColor=#d6b656;" vertex="1" parent="1">
          <mxGeometry x="680" y="42.5" width="120" height="80" as="geometry" />
        </mxCell>
        <mxCell id="4bZb9EZNsROhcdp3ug32-44" value="" style="edgeStyle=orthogonalEdgeStyle;rounded=0;orthogonalLoop=1;jettySize=auto;html=1;" edge="1" parent="1" source="4bZb9EZNsROhcdp3ug32-12" target="4bZb9EZNsROhcdp3ug32-14">
          <mxGeometry relative="1" as="geometry" />
        </mxCell>
        <mxCell id="4bZb9EZNsROhcdp3ug32-12" value="Enter Title and Description" style="rounded=1;whiteSpace=wrap;html=1;fontSize=12;glass=0;strokeWidth=1;shadow=0;fillColor=#fff2cc;strokeColor=#d6b656;" vertex="1" parent="1">
          <mxGeometry x="680" y="170" width="120" height="40" as="geometry" />
        </mxCell>
        <mxCell id="4bZb9EZNsROhcdp3ug32-45" value="" style="edgeStyle=orthogonalEdgeStyle;rounded=0;orthogonalLoop=1;jettySize=auto;html=1;" edge="1" parent="1" source="4bZb9EZNsROhcdp3ug32-14" target="4bZb9EZNsROhcdp3ug32-15">
          <mxGeometry relative="1" as="geometry" />
        </mxCell>
        <mxCell id="4bZb9EZNsROhcdp3ug32-14" value="Import Material &lt;br&gt;from SAP" style="rounded=1;whiteSpace=wrap;html=1;fontSize=12;glass=0;strokeWidth=1;shadow=0;fillColor=#fff2cc;strokeColor=#d6b656;" vertex="1" parent="1">
          <mxGeometry x="680" y="260" width="120" height="40" as="geometry" />
        </mxCell>
        <mxCell id="4bZb9EZNsROhcdp3ug32-47" style="edgeStyle=orthogonalEdgeStyle;rounded=0;orthogonalLoop=1;jettySize=auto;html=1;entryX=0;entryY=0.5;entryDx=0;entryDy=0;" edge="1" parent="1" source="4bZb9EZNsROhcdp3ug32-15" target="4bZb9EZNsROhcdp3ug32-16">
          <mxGeometry relative="1" as="geometry">
            <Array as="points">
              <mxPoint x="830" y="360" />
              <mxPoint x="830" y="83" />
            </Array>
          </mxGeometry>
        </mxCell>
        <mxCell id="4bZb9EZNsROhcdp3ug32-15" value="Add Solder Paste, Epoxy in Material" style="rounded=1;whiteSpace=wrap;html=1;fontSize=12;glass=0;strokeWidth=1;shadow=0;fillColor=#fff2cc;strokeColor=#d6b656;" vertex="1" parent="1">
          <mxGeometry x="680" y="340" width="120" height="40" as="geometry" />
        </mxCell>
        <mxCell id="4bZb9EZNsROhcdp3ug32-35" value="" style="edgeStyle=orthogonalEdgeStyle;rounded=0;orthogonalLoop=1;jettySize=auto;html=1;" edge="1" parent="1" source="4bZb9EZNsROhcdp3ug32-16" target="4bZb9EZNsROhcdp3ug32-17">
          <mxGeometry relative="1" as="geometry" />
        </mxCell>
        <mxCell id="4bZb9EZNsROhcdp3ug32-16" value="Enter MPN" style="rounded=1;whiteSpace=wrap;html=1;fontSize=12;glass=0;strokeWidth=1;shadow=0;fillColor=#fff2cc;strokeColor=#d6b656;" vertex="1" parent="1">
          <mxGeometry x="880" y="62.5" width="120" height="40" as="geometry" />
        </mxCell>
        <mxCell id="4bZb9EZNsROhcdp3ug32-38" style="edgeStyle=orthogonalEdgeStyle;rounded=0;orthogonalLoop=1;jettySize=auto;html=1;entryX=0.5;entryY=0;entryDx=0;entryDy=0;" edge="1" parent="1" source="4bZb9EZNsROhcdp3ug32-17" target="4bZb9EZNsROhcdp3ug32-18">
          <mxGeometry relative="1" as="geometry" />
        </mxCell>
        <mxCell id="4bZb9EZNsROhcdp3ug32-71" value="No" style="edgeLabel;html=1;align=center;verticalAlign=middle;resizable=0;points=[];" vertex="1" connectable="0" parent="4bZb9EZNsROhcdp3ug32-38">
          <mxGeometry x="0.208" relative="1" as="geometry">
            <mxPoint y="1" as="offset" />
          </mxGeometry>
        </mxCell>
        <mxCell id="4bZb9EZNsROhcdp3ug32-72" style="edgeStyle=orthogonalEdgeStyle;rounded=0;orthogonalLoop=1;jettySize=auto;html=1;entryX=0;entryY=0.5;entryDx=0;entryDy=0;" edge="1" parent="1" source="4bZb9EZNsROhcdp3ug32-17" target="4bZb9EZNsROhcdp3ug32-19">
          <mxGeometry relative="1" as="geometry">
            <Array as="points">
              <mxPoint x="850" y="190" />
              <mxPoint x="850" y="360" />
            </Array>
          </mxGeometry>
        </mxCell>
        <mxCell id="4bZb9EZNsROhcdp3ug32-73" value="Yes" style="edgeLabel;html=1;align=center;verticalAlign=middle;resizable=0;points=[];" vertex="1" connectable="0" parent="4bZb9EZNsROhcdp3ug32-72">
          <mxGeometry x="-0.8713" y="1" relative="1" as="geometry">
            <mxPoint x="-1" y="-2" as="offset" />
          </mxGeometry>
        </mxCell>
        <mxCell id="4bZb9EZNsROhcdp3ug32-17" value="MPN Exists?" style="rhombus;whiteSpace=wrap;html=1;fillColor=#fff2cc;strokeColor=#d6b656;" vertex="1" parent="1">
          <mxGeometry x="880" y="150" width="120" height="80" as="geometry" />
        </mxCell>
        <mxCell id="4bZb9EZNsROhcdp3ug32-39" value="" style="edgeStyle=orthogonalEdgeStyle;rounded=0;orthogonalLoop=1;jettySize=auto;html=1;" edge="1" parent="1" source="4bZb9EZNsROhcdp3ug32-18" target="4bZb9EZNsROhcdp3ug32-19">
          <mxGeometry relative="1" as="geometry" />
        </mxCell>
        <mxCell id="4bZb9EZNsROhcdp3ug32-18" value="Register MPN" style="rounded=1;whiteSpace=wrap;html=1;fontSize=12;glass=0;strokeWidth=1;shadow=0;fillColor=#fff2cc;strokeColor=#d6b656;" vertex="1" parent="1">
          <mxGeometry x="880" y="260" width="120" height="40" as="geometry" />
        </mxCell>
        <mxCell id="4bZb9EZNsROhcdp3ug32-60" style="edgeStyle=orthogonalEdgeStyle;rounded=0;orthogonalLoop=1;jettySize=auto;html=1;entryX=0;entryY=0.5;entryDx=0;entryDy=0;" edge="1" parent="1" source="4bZb9EZNsROhcdp3ug32-19" target="4bZb9EZNsROhcdp3ug32-20">
          <mxGeometry relative="1" as="geometry" />
        </mxCell>
        <mxCell id="4bZb9EZNsROhcdp3ug32-19" value="Set BOM Status &lt;br&gt;as Prototype" style="rounded=1;whiteSpace=wrap;html=1;fontSize=12;glass=0;strokeWidth=1;shadow=0;fillColor=#fff2cc;strokeColor=#d6b656;" vertex="1" parent="1">
          <mxGeometry x="880" y="340" width="120" height="40" as="geometry" />
        </mxCell>
        <mxCell id="4bZb9EZNsROhcdp3ug32-41" value="" style="edgeStyle=orthogonalEdgeStyle;rounded=0;orthogonalLoop=1;jettySize=auto;html=1;" edge="1" parent="1" source="4bZb9EZNsROhcdp3ug32-20" target="4bZb9EZNsROhcdp3ug32-21">
          <mxGeometry relative="1" as="geometry" />
        </mxCell>
        <mxCell id="4bZb9EZNsROhcdp3ug32-20" value="Enter Comment" style="rounded=1;whiteSpace=wrap;html=1;fontSize=12;glass=0;strokeWidth=1;shadow=0;fillColor=#fff2cc;strokeColor=#d6b656;" vertex="1" parent="1">
          <mxGeometry x="1080" y="62.5" width="120" height="40" as="geometry" />
        </mxCell>
        <mxCell id="4bZb9EZNsROhcdp3ug32-58" value="" style="edgeStyle=orthogonalEdgeStyle;rounded=0;orthogonalLoop=1;jettySize=auto;html=1;" edge="1" parent="1" source="4bZb9EZNsROhcdp3ug32-21" target="4bZb9EZNsROhcdp3ug32-43">
          <mxGeometry relative="1" as="geometry" />
        </mxCell>
        <mxCell id="4bZb9EZNsROhcdp3ug32-21" value="Deactivate BOM" style="rounded=1;whiteSpace=wrap;html=1;fontSize=12;glass=0;strokeWidth=1;shadow=0;fillColor=#fff2cc;strokeColor=#d6b656;" vertex="1" parent="1">
          <mxGeometry x="1080" y="170" width="120" height="40" as="geometry" />
        </mxCell>
        <mxCell id="4bZb9EZNsROhcdp3ug32-23" value="End" style="ellipse;whiteSpace=wrap;html=1;" vertex="1" parent="1">
          <mxGeometry x="1105" y="340" width="70" height="45" as="geometry" />
        </mxCell>
        <mxCell id="4bZb9EZNsROhcdp3ug32-59" value="" style="edgeStyle=orthogonalEdgeStyle;rounded=0;orthogonalLoop=1;jettySize=auto;html=1;" edge="1" parent="1" source="4bZb9EZNsROhcdp3ug32-43" target="4bZb9EZNsROhcdp3ug32-23">
          <mxGeometry relative="1" as="geometry" />
        </mxCell>
        <mxCell id="4bZb9EZNsROhcdp3ug32-43" value="Update BOM &lt;br&gt;Option Attributes" style="rounded=1;whiteSpace=wrap;html=1;fontSize=12;glass=0;strokeWidth=1;shadow=0;fillColor=#f8cecc;strokeColor=#b85450;" vertex="1" parent="1">
          <mxGeometry x="1080" y="260" width="120" height="40" as="geometry" />
        </mxCell>
        <mxCell id="4bZb9EZNsROhcdp3ug32-48" style="edgeStyle=orthogonalEdgeStyle;rounded=0;orthogonalLoop=1;jettySize=auto;html=1;exitX=0.5;exitY=1;exitDx=0;exitDy=0;" edge="1" parent="1" source="4bZb9EZNsROhcdp3ug32-10" target="4bZb9EZNsROhcdp3ug32-10">
          <mxGeometry relative="1" as="geometry" />
        </mxCell>
        <mxCell id="4bZb9EZNsROhcdp3ug32-61" value="RPA" style="rounded=1;whiteSpace=wrap;html=1;fontSize=12;glass=0;strokeWidth=1;shadow=0;fillColor=#fff2cc;strokeColor=#d6b656;" vertex="1" parent="1">
          <mxGeometry x="1310" y="450" width="50" height="30" as="geometry" />
        </mxCell>
        <mxCell id="4bZb9EZNsROhcdp3ug32-64" value="&lt;b&gt;&lt;u&gt;Legends&lt;/u&gt;&lt;/b&gt;" style="text;html=1;align=center;verticalAlign=middle;resizable=0;points=[];autosize=1;strokeColor=none;fillColor=none;" vertex="1" parent="1">
          <mxGeometry x="1300" y="410" width="70" height="30" as="geometry" />
        </mxCell>
        <mxCell id="4bZb9EZNsROhcdp3ug32-67" value="Manual" style="rounded=1;whiteSpace=wrap;html=1;fontSize=12;glass=0;strokeWidth=1;shadow=0;fillColor=#f8cecc;strokeColor=#b85450;" vertex="1" parent="1">
          <mxGeometry x="1250" y="450" width="50" height="30" as="geometry" />
        </mxCell>
        <mxCell id="4bZb9EZNsROhcdp3ug32-68" value="Macro" style="rounded=1;whiteSpace=wrap;html=1;fontSize=12;glass=0;strokeWidth=1;shadow=0;fillColor=#dae8fc;strokeColor=#6c8ebf;" vertex="1" parent="1">
          <mxGeometry x="1370" y="450" width="50" height="30" as="geometry" />
        </mxCell>
      </root>
    </mxGraphModel>
  </diagram>
</mxfile>
